<svg width="18" height="18" fill="none" xmlns="http://www.w3.org/2000/svg"><path fill-rule="evenodd" clip-rule="evenodd" d="M9 4.09c-1.698 0-4.012.147-5.48.254-.488.035-.866.421-.866.893v.533l5.879 3.088c.29.153.644.153.934 0l5.88-3.088v-.533c0-.472-.379-.858-.867-.893-1.469-.107-3.782-.253-5.48-.253zm6.346 2.928l-5.319 2.794a2.223 2.223 0 01-2.054 0l-5.32-2.794v5.745c0 .472.379.858.867.893 1.468.107 3.782.253 5.48.253 1.698 0 4.011-.146 5.48-.253.488-.035.866-.421.866-.893V7.018zM3.431 3.256C4.9 3.149 7.253 3 9 3c1.747 0 4.1.149 5.57.256 1.098.08 1.93.948 1.93 1.981v7.526c0 1.033-.832 1.901-1.93 1.981C13.1 14.851 10.746 15 9 15c-1.747 0-4.1-.149-5.57-.256-1.098-.08-1.93-.948-1.93-1.981V5.237c0-1.033.832-1.901 1.93-1.981z" fill="#3D3D3D"/></svg>