<svg width="15" height="13" fill="none" xmlns="http://www.w3.org/2000/svg"><path d="M4.717 12.19c5.661 0 8.757-4.689 8.757-8.755a8.48 8.48 0 00-.01-.398A6.262 6.262 0 0015 1.443a6.14 6.14 0 01-1.767.485A3.089 3.089 0 0014.586.225a6.168 6.168 0 01-1.954.747A3.078 3.078 0 007.387 3.78 8.737 8.737 0 011.044.564a3.076 3.076 0 00.953 4.108 3.056 3.056 0 01-1.394-.385v.04A3.079 3.079 0 003.07 7.342a3.08 3.08 0 01-1.39.053 3.081 3.081 0 002.875 2.138A6.175 6.175 0 010 10.808a8.712 8.712 0 004.717 1.383z" fill="#3D3D3D"/></svg>